/* XPM */
static char *logo32[] = {
/* width height num_colors chars_per_pixel */
"    32    32       10            1",
/* colors */
". c #000000",
"# c #800000",
"a c #808000",
"b c #008000",
"c c #000080",
"d c None",
"e c #ff0000",
"f c #ffff00",
"g c #00ff00",
"h c #0000ff",
/* pixels */
"dddddddddddddddddddddddddddddddd",
"dddddddddddddddddddddddddddddddd",
"dddddddddddddddddddddddddddddddd",
"dddddddddddddddddddddddddddddddd",
"dddddddddddddddddddddddddddddddd",
"dddd........dddddddddddddddddddd",
"dd............dddddddddddddddddd",
"d..............d.dddddddddddd.dd",
"d...bgg..ee#...d...d.ddddd.dd.dd",
"d..gggg..eeee..d...d..d.dd..dddd",
"d..gggg..eeee..ddd.d..d..dd.dddd",
"d..gggg..eeee..dedddd.dd.ddddedd",
"d..gggg..eeee..deeededddddeddedd",
"d..gb......#e..deeedeededdeedddd",
"d..............dddedeedeeddedddd",
"d..............d.ddddeddedddd.dd",
"d...aff..hhc...d...d.ddddd.dd.dd",
"d..ffff..hhhh..d...d..d.dd..dddd",
"d..ffff..hhhh..ddd.d..d..dd.dddd",
"d..ffff..hhhh..dhdddd.dd.ddddhdd",
"d..ffff..hhhh..dhhhdhdddddhddhdd",
"d..fa......ch..dhhhdhhdhddhhdddd",
"d..............dddhdhhdhhddhdddd",
"d..............d.ddddhddhdddd.dd",
"d....dddddd....d...d.ddddd.dd.dd",
"d..dddddddddd..d...d..d.dd..dddd",
"dddddddddddddddddd.d..d..dd.dddd",
"ddddddddddddddddddddd.dd.ddddddd",
"dddddddddddddddddddddddddddddddd",
"dddddddddddddddddddddddddddddddd",
"dddddddddddddddddddddddddddddddd",
"dddddddddddddddddddddddddddddddd"
};
