/* XPM */
static char *logo16[] = {
/* width height num_colors chars_per_pixel */
"    16    16        6            1",
/* colors */
". c None",
"# c #000000",
"a c #ff0000",
"b c #00ff00",
"c c #0000ff",
"d c #ffff00",
/* pixels */
"................",
"...####.........",
".########.......",
"###b##a###.....#",
"##bb##aa####.#.#",
"##bb##aa######..",
"##b####a##.....a",
"##########aa.a.a",
"###d##c###aaaa..",
"##dd##cc##.....c",
"##dd##cc##cc.c.c",
"##d####c##cccc..",
"##########.....#",
"###....#####.#.#",
"#........#####..",
"................"
};
